<?xml version="1.0" encoding="utf-8"?>
<!-- Svg Vector Icons : http://www.onlinewebfonts.com/icon -->
<!DOCTYPE svg PUBLIC "-//W3C//DTD SVG 1.1//EN" "http://www.w3.org/Graphics/SVG/1.1/DTD/svg11.dtd">
<svg version="1.1" xmlns="http://www.w3.org/2000/svg" xmlns:xlink="http://www.w3.org/1999/xlink" x="0px" y="0px" viewBox="0 0 1000 1000" enable-background="new 0 0 1000 1000" xml:space="preserve">
<metadata> Svg Vector Icons : http://www.onlinewebfonts.com/icon </metadata>
<g><path d="M344.5,179.8l214.8,118.5c5.9,3.3,13.5,1.3,16.9-4.4l6.2-10.2c3.4-5.7,1.4-13-4.5-16.2L363.2,149c-5.9-3.3-13.6-1.3-16.9,4.3l-6.2,10.3C336.6,169.3,338.6,176.5,344.5,179.8L344.5,179.8z M158.5,487.6l214.8,118.5c5.9,3.3,13.5,1.3,16.9-4.3l6.2-10.2c3.4-5.7,1.4-12.9-4.5-16.3L177.1,456.8c-5.9-3.3-13.5-1.3-16.9,4.3l-6.2,10.2C150.5,477.1,152.5,484.3,158.5,487.6L158.5,487.6z M916,632.3L486.1,419.5l57.8-95.6c3.4-5.6,1.4-12.9-4.5-16.2L346,201c-5.9-3.3-13.6-1.3-17,4.4L192.6,431.1c-3.4,5.6-1.3,13,4.5,16.2l193.4,106.6c5.9,3.3,13.5,1.3,16.9-4.3l57.8-95.6l407.9,249.3c5.7,3.5,13.3,1.7,16.7-3.9l31-51.4C924.2,642.4,922,635.3,916,632.3L916,632.3z M983.9,662.3l-21.5-11.8c-5.9-3.3-13.6-1.4-16.9,4.3l-37.2,61.5c-3.4,5.6-1.3,12.9,4.5,16.2l21.5,11.8c5.9,3.3,13.5,1.3,17-4.3l37.2-61.5C991.7,672.8,989.7,665.5,983.9,662.3L983.9,662.3z M519.7,735.4h-25.9c3.2-3.5-7.9-0.3-7.9-5.3v-61.5H73.4v61.5c0,5-22,1.8-18.7,5.3H28.8c-11.3,0-18.8,14.7-18.8,25.4v61.5c0,10.7,7.5,30.3,18.8,30.3h490.9c11.3,0,29.6-19.7,29.6-30.3v-61.5C549.3,750.1,531,735.4,519.7,735.4L519.7,735.4z M485.9,822.3H73.4c-11.8,0-31.7-19.5-31.7-30.8c0-11.3,19.9-30.8,31.7-30.8h412.5c11.9,0,31.7,19.5,31.7,30.8C517.6,802.8,497.7,822.3,485.9,822.3L485.9,822.3z"/></g>
</svg>