<?xml version="1.0" encoding="utf-8"?>
<!-- Svg Vector Icons : http://www.onlinewebfonts.com/icon -->
<!DOCTYPE svg PUBLIC "-//W3C//DTD SVG 1.1//EN" "http://www.w3.org/Graphics/SVG/1.1/DTD/svg11.dtd">
<svg version="1.1" xmlns="http://www.w3.org/2000/svg" xmlns:xlink="http://www.w3.org/1999/xlink" x="0px" y="0px" viewBox="0 0 1000 1000" enable-background="new 0 0 1000 1000" xml:space="preserve">
<metadata> Svg Vector Icons : http://www.onlinewebfonts.com/icon </metadata>
<g><g transform="translate(0.000000,512.000000) scale(0.100000,-0.100000)"><path d="M2921,5084c-454.9-123-763.3-583.7-689.1-1032.7c76.1-458.8,458.8-792.6,909.7-790.7c273.3,2,462.7,80,655.9,273.3c193.3,193.3,271.4,382.6,273.3,655.9c0,247.9-93.7,476.3-271.4,652C3561.3,5076.1,3231.4,5167.9,2921,5084z"/><path d="M6569.7,3906.8c-58.6-19.5-1116.7-437.3-2350.5-927.3c-1235.8-490-2286.1-901.9-2338.8-911.7c-181.6-39-413.9,50.8-533,205c-29.3,37.1-78.1,146.4-109.3,238.2c-97.6,292.8-191.3,408-398.3,488.1c-109.3,41-320.2,31.2-429.5-21.5c-197.2-95.7-310.4-285-310.4-517.3c0-140.6,7.8-169.8,208.9-691.1c117.1-300.6,228.4-579.8,249.9-622.8c50.8-95.7,195.2-238.2,296.7-290.9c242.1-123,345.5-123,980-5.9C2388,953,2493.4,955,2657.4,873c124.9-62.5,247.9-201.1,288.9-322.1c42.9-123,62.5-296.7,35.1-296.7c-41,0-1354.8-712.6-1401.7-759.4c-162-162-56.6-439.3,173.7-464.6c85.9-9.8,95.7-5.8,519.3,222.6l162,89.8l-97.6-183.5c-54.7-101.5-152.3-283.1-216.7-406.1c-164-308.4-175.7-367-99.6-507.6c74.2-142.5,316.3-158.1,433.4-29.3c17.6,21.5,165.9,287,328,593.5c164,306.5,304.6,572,316.3,591.5c9.8,19.5,21.5,33.2,25.4,29.3c3.9-1.9,130.8-849.2,283.1-1880c173.7-1161.6,292.8-1913.2,316.3-1975.7c132.7-357.3,533-544.7,859-400.2c167.9,74.2,300.6,230.4,359.2,425.6c19.5,64.4,41,568.1,85.9,1878c62.5,1915.1,62.5,1924.9,169.8,2108.4c70.3,119.1,212.8,255.7,331.9,322.1c82,43,452.9,128.8,1993.2,460.7c2045.9,441.2,2018.6,433.4,2184.5,599.3c302.6,304.6,242.1,755.5-128.8,944.9c-162.1,82-160.1,82-1891.7-19.5c-905.8-54.7-1669.1-97.6-1698.4-97.6c-42.9,0-58.6,15.6-83.9,76.1c-39,91.8-111.3,142.5-220.6,158.1c-80,9.8-74.2,13.7,661.8,429.5c474.4,267.5,777,451,837.5,507.6c191.3,175.7,263.6,456.8,165.9,655.9c-48.8,103.5-169.9,214.7-287,265.5C6934.7,3945.8,6706.3,3953.6,6569.7,3906.8z"/></g></g>
</svg>